{"title":"Hiiro no Kakera: The Tamayori Princess Saga","uid":9385039,"size":767973983,"categoryP":"video","categoryS":"tv_shows","magnet":"?xt=urn:btih:27feb08cf464209650aa9cce7d3653cb34dbc9ab&amp;dn=Hiiro+no+Kakera%3A+The+Tamayori+Princess+Saga&amp;tr=udp%3A%2F%2Ftracker.openbittorrent.com%3A80&amp;tr=udp%3A%2F%2Fopen.demonii.com%3A1337&amp;tr=udp%3A%2F%2Ftracker.coppersurfer.tk%3A6969&amp;tr=udp%3A%2F%2Fexodus.desync.com%3A6969","seeders":1,"leechers":0,"uploader":"p7trick","files":-1,"time":1387787912,"description":"downloaded from watchcartoononline\n\n\nHiiro no Kakera: The Tamayori Princess Saga ENGLISH DUBBED eps 1-13\n\n_________________________________________________________\n\nFormat                                   : MPEG-4\nFormat profile                           : Base Media\nCodec ID                                 : isom\nFile size                                : 51.3 MiB\nDuration                                 : 25mn 1s\nOverall bit rate                         : 287 Kbps\nWriting application                      : Lavf55.0.100\n\nVideo\nID                                       : 1\nFormat                                   : AVC\nFormat/Info                              : Advanced Video Codec\nFormat profile                           : &lt;a class=&quot;__cf_email__&quot; href=&quot;/cdn-cgi/l/email-protection&quot; data-cfemail=&quot;f3b19280969f9a9d96b3bfc0ddc3&quot;&gt;[email&amp;#160;protected]&lt;/a&gt;&lt;script cf-hash='f9e31' type=&quot;text/javascript&quot;&gt;\n/* &lt;![CDATA[ */!function(){try{var t=&quot;currentScript&quot;in document?document.currentScript:function(){for(var t=document.getElementsByTagName(&quot;script&quot;),e=t.length;e--;)if(t[e].getAttribute(&quot;cf-hash&quot;))return t[e]}();if(t&amp;&amp;t.previousSibling){var e,r,n,i,c=t.previousSibling,a=c.getAttribute(&quot;data-cfemail&quot;);if(a){for(e=&quot;&quot;,r=parseInt(a.substr(0,2),16),n=2;a.length-n;n+=2)i=parseInt(a.substr(n,2),16)^r,e+=String.fromCharCode(i);e=document.createTextNode(e),c.parentNode.replaceChild(e,c)}}}catch(u){}}();/* ]]&gt; */&lt;/script&gt;\nFormat settings, CABAC                   : No\nFormat settings, ReFrames                : 5 frames\nCodec ID                                 : avc1\nCodec ID/Info                            : Advanced Video Coding\nDuration                                 : 25mn 1s\nBit rate                                 : 154 Kbps\nWidth                                    : 640 pixels\nHeight                                   : 356 pixels\nDisplay aspect ratio                     : 16:9\nFrame rate mode                          : Constant\nFrame rate                               : 23.976 fps\nColor space                              : YUV\nChroma subsampling                       : 4:2:0\nBit depth                                : 8 bits\nScan type                                : Progressive\nBits/(Pixel*Frame)                       : 0.028\nStream size                              : 27.6 MiB (54%)\n\nAudio\nID                                       : 2\nFormat                                   : AAC\nFormat/Info                              : Advanced Audio Codec\nFormat profile                           : LC\nCodec ID                                 : 40\nDuration                                 : 25mn 1s\nDuration_LastFrame                       : -10ms\nBit rate mode                            : Constant\nBit rate                                 : 128 Kbps\nChannel(s)                               : 2 channels\nChannel positions                        : Front: L R\nSampling rate                            : 44.1 KHz\nCompression mode                         : Lossy\nStream size                              : 22.9 MiB (45%)\n\n\n\n_________________________________________________________\n\nSummary:\nTamaki Kasuga has supposedly gone to live with her grandmother after her parents are transferred overseas. But the real reason for her arrival is that she must continue the role, handed down from her ancestor Princess Tamayori, to seal the sword Onikirimaru. Five young men serve as her guardians against the mysterious Logos.\n\n\n\nfor updates:\nTwitter - @p7tricktorrent\nFacebook - /p7tricktorrent\n_________________________________________________________\n\nSEED!\n\nshare ratio:\n&quot;Scumbag = 0.1:1\nLeecher = 0.999:1\nMinimum = 1:1\nGood = 3:1\nGreat = 5:1\nAwesome = 10:1\n1337 = 100:1&quot;\t\t","torrent":{"xt":"urn:btih:27feb08cf464209650aa9cce7d3653cb34dbc9ab","amp;dn":"Hiiro+no+Kakera%3A+The+Tamayori+Princess+Saga","amp;tr":["udp%3A%2F%2Ftracker.openbittorrent.com%3A80","udp%3A%2F%2Fopen.demonii.com%3A1337","udp%3A%2F%2Ftracker.coppersurfer.tk%3A6969","udp%3A%2F%2Fexodus.desync.com%3A6969"],"infoHash":"27feb08cf464209650aa9cce7d3653cb34dbc9ab","infoHashBuffer":{"type":"Buffer","data":[39,254,176,140,244,100,32,150,80,170,156,206,125,54,83,203,52,219,201,171]},"announce":[],"urlList":[]}}